<svg width="297.267" height="244.04" viewBox="0 0 222.95 183.03" class="displayed_equation" xmlns="http://www.w3.org/2000/svg">
  <path d="M 123.984375 404.245312 L 1554.726563 404.245312 L 2105.585938 1670.45625 L 674.804688 1670.45625 Z M 123.984375 404.245312" transform="matrix(.1 0 0 -.1 0 183.03)" fill="none" stroke-width="7.97" stroke-linecap="round" stroke-linejoin="round" stroke="#000" stroke-miterlimit="10" />
  <path d="M 674.804688 1620.45625 L 674.804688 454.20625" transform="matrix(.1 0 0 -.1 0 183.03)" fill="none" stroke-width="7.97" stroke-linecap="round" stroke-linejoin="round" stroke="#e132a2" stroke-miterlimit="10" />
  <path d="M 67.480469 17.121094 L 65.417969 22.589844 L 67.480469 20.785156 L 69.542969 22.589844" fill="#e132a2" />
  <path d="M 674.804688 1659.089063 L 654.179688 1604.401563 L 674.804688 1622.448438 L 695.429688 1604.401563 Z M 674.804688 1659.089063" transform="matrix(.1 0 0 -.1 0 183.03)" fill="none" stroke-width="7.97" stroke-linecap="round" stroke="#e132a2" stroke-miterlimit="10" />
  <path d="M 67.480469 141.472656 L 69.542969 136.003906 L 67.480469 137.808594 L 65.417969 136.003906" fill="#e132a2" />
  <path d="M 674.804688 415.573437 L 695.429688 470.260937 L 674.804688 452.214062 L 654.179688 470.260937 Z M 674.804688 415.573437" transform="matrix(.1 0 0 -.1 0 183.03)" fill="none" stroke-width="7.97" stroke-linecap="round" stroke="#e132a2" stroke-miterlimit="10" />
  <path d="M 77.492188 81.980469 C 77.324219 82.191406 77.054688 82.5625 76.652344 82.5625 C 76.507813 82.5625 76.441406 82.472656 76.441406 82.347656 C 76.441406 82.214844 76.484375 82.082031 76.484375 82.082031 L 77.109375 79.503906 C 77.144531 79.347656 77.210938 78.96875 77.210938 78.679688 C 77.210938 78.277344 77.042969 77.886719 76.476563 77.886719 C 75.160156 77.886719 74.132813 79.503906 73.664063 80.339844 L 73.574219 80.339844 L 74.703125 75.351563 L 74.445313 75.351563 L 72.90625 75.476563 L 72.90625 75.777344 C 72.90625 75.777344 73.128906 75.753906 73.273438 75.753906 C 73.53125 75.753906 73.628906 75.867188 73.628906 76.046875 C 73.628906 76.214844 73.597656 76.425781 73.597656 76.425781 L 72.125 83.230469 L 73.039063 83.230469 L 73.441406 81.46875 C 73.796875 80.695313 75.09375 78.6875 75.917969 78.6875 C 76.171875 78.6875 76.25 78.878906 76.25 79.136719 C 76.25 79.359375 76.171875 79.671875 76.171875 79.671875 L 75.515625 82.25 C 75.492188 82.304688 75.460938 82.503906 75.460938 82.683594 C 75.460938 83.015625 75.628906 83.339844 76.1875 83.339844 C 76.988281 83.339844 77.433594 82.5625 77.726563 82.148438 L 77.492188 81.980469" fill="#e132a2" />
  <path d="M 173.945313 279.05 L 1504.609375 279.05" transform="matrix(.1 0 0 -.1 0 183.03)" fill="none" stroke-width="7.97" stroke-linecap="round" stroke-linejoin="round" stroke="#f3a203" stroke-miterlimit="10" />
  <path d="M 13.53125 155.125 L 19 157.1875 L 17.195313 155.125 L 19 153.058594" fill="#f3a203" />
  <path d="M 135.3125 279.05 L 190 258.425 L 171.953125 279.05 L 190 299.714062 Z M 135.3125 279.05" transform="matrix(.1 0 0 -.1 0 183.03)" fill="none" stroke-width="7.97" stroke-linecap="round" stroke="#f3a203" stroke-miterlimit="10" />
  <path d="M 154.320313 155.125 L 148.855469 153.058594 L 150.660156 155.125 L 148.855469 157.1875" fill="#f3a203" />
  <path d="M 1543.203125 279.05 L 1488.554688 299.714062 L 1506.601563 279.05 L 1488.554688 258.425 Z M 1543.203125 279.05" transform="matrix(.1 0 0 -.1 0 183.03)" fill="none" stroke-width="7.97" stroke-linecap="round" stroke="#f3a203" stroke-miterlimit="10" />
  <path d="M 83.210938 162.644531 L 83.867188 159.265625 L 83.621094 159.265625 L 82.082031 159.386719 L 82.082031 159.675781 C 82.082031 159.675781 82.292969 159.65625 82.417969 159.65625 C 82.640625 159.65625 82.820313 159.734375 82.820313 159.976563 C 82.820313 160.113281 82.785156 160.324219 82.773438 160.367188 L 81.511719 166.851563 C 82.058594 167.128906 82.628906 167.265625 83.277344 167.265625 C 85.261719 167.265625 86.390625 165.566406 86.390625 163.738281 C 86.390625 162.398438 85.695313 161.785156 84.816406 161.785156 C 84.222656 161.785156 83.742188 162.109375 83.265625 162.644531 Z M 83.054688 163.605469 C 83.289063 163.078125 83.777344 162.410156 84.492188 162.410156 C 84.992188 162.410156 85.40625 162.777344 85.40625 163.78125 C 85.40625 165.476563 84.769531 166.796875 83.445313 166.796875 C 82.976563 166.796875 82.652344 166.527344 82.507813 166.394531 L 83.054688 163.605469" fill="#f3a203" />
  <path d="M839.375 444.089062L839.375 364.401562M1794.101563 1054.401563L1867.1875 1022.604688M1390.195313 1630.6125L1390.195313 1710.3M435.429688 1020.3L362.382813 1052.096875M612.539063 404.245312L612.539063 466.589062 674.882813 466.589062" transform="matrix(.1 0 0 -.1 0 183.03)" fill="none" stroke-width="7.97" stroke-linecap="round" stroke-linejoin="round" stroke="#000" stroke-miterlimit="10" />
</svg>